{"title":"[ShepardTDS] No Game No Life Dual Audio [720p 8-bit x265 HEVC] 1","uid":12746676,"size":2521109333,"categoryP":"video","categoryS":"tv_shows","magnet":"?xt=urn:btih:d8b44bd833c8ef3ee5744fb688c5851f51eafe41&amp;dn=%5BShepardTDS%5D+No+Game+No+Life+Dual+Audio+%5B720p+8-bit+x265+HEVC%5D+1&amp;tr=udp%3A%2F%2Ftracker.leechers-paradise.org%3A6969&amp;tr=udp%3A%2F%2Fzer0day.ch%3A1337&amp;tr=udp%3A%2F%2Fopen.demonii.com%3A1337&amp;tr=udp%3A%2F%2Ftracker.coppersurfer.tk%3A6969&amp;tr=udp%3A%2F%2Fexodus.desync.com%3A6969","seeders":1,"leechers":0,"uploader":"ShepardTDS","files":20,"time":1447318880,"description":"Constant Quality encoding.\r\nVariable Bit rates\r\nED and OP included\r\nAll 6 OVAs\r\nBlu-Ray Source\r\n\r\n\r\nGeneral\r\n\r\nFormat : Matroska\r\nFile size : 163 MiB-222 MiB\r\nDuration : 23mn 47s\r\nOverall bit rate : 960 Kbps-1,307 Kbps\r\nEncoded date : UTC 2015-11-06 19:12:20\r\nWriting application : mkvmerge v7.7.0 ('Six Voices') 32bit built on Feb 28 2015 23:23:00\r\nWriting library : libebml v1.3.1 + libmatroska v1.4.2\r\n\r\nVideo\r\nID : 1\r\nFormat : V_MPEGH/ISO/HEVC\r\nCodec ID : V_MPEGH/ISO/HEVC\r\nDuration : 23mn 47s\r\nBit rate : 557 Kbps-897 Kbps\r\nWidth : 1 280 pixels\r\nHeight : 720 pixels\r\nDisplay aspect ratio : 16:9\r\nFrame rate : 23.976 fps\r\nBits/(Pixel*Frame) : 0.025\r\nStream size : 94.8 MiB (58%)\r\n\r\nAudio #1\r\nID : 2\r\nFormat : AC-3\r\nFormat/Info : Audio Coding 3\r\nMode extension : CM (complete main)\r\nCodec ID : A_AC3\r\nDuration : 23mn 47s\r\nBit rate mode : Constant\r\nBit rate : 192 Kbps\r\nChannel(s) : 2 channels\r\nChannel positions : Front: L R\r\nSampling rate : 48.0 KHz\r\nBit depth : 16 bits\r\nCompression mode : Lossy\r\nStream size : 32.7 MiB (20%)\r\nLanguage : English\r\n\r\nAudio #2\r\nID : 3\r\nFormat : AC-3\r\nFormat/Info : Audio Coding 3\r\nMode extension : CM (complete main)\r\nCodec ID : A_AC3\r\nDuration : 23mn 47s\r\nBit rate mode : Constant\r\nBit rate : 192 Kbps\r\nChannel(s) : 2 channels\r\nChannel positions : Front: L R\r\nSampling rate : 48.0 KHz\r\nBit depth : 16 bits\r\nCompression mode : Lossy\r\nStream size : 32.7 MiB (20%)\r\nLanguage : Japanese\r\n\r\nText #1\r\nID : 4\r\nFormat : ASS\r\nCodec ID : S_TEXT/ASS\r\nCodec ID/Info : Advanced Sub Station Alpha\r\nCompression mode : Lossless\r\nTitle : English Signs/Songs\r\nLanguage : English\r\n\r\nText #2\r\nID : 5\r\nFormat : ASS\r\nCodec ID : S_TEXT/ASS\r\nCodec ID/Info : Advanced Sub Station Alpha\r\nCompression mode : Lossless\r\nTitle : English Subtitles\r\nLanguage : English\r\n\r\nMenu\r\n00:00:00.000 : en:Prologue\r\n00:01:34.019 : en:Part A\r\n00:11:45.004 : en:Part B\r\n00:22:09.962 : en:Ending\r\n00:23:39.968 : en:Preview","torrent":{"xt":"urn:btih:d8b44bd833c8ef3ee5744fb688c5851f51eafe41","amp;dn":"%5BShepardTDS%5D+No+Game+No+Life+Dual+Audio+%5B720p+8-bit+x265+HEVC%5D+1","amp;tr":["udp%3A%2F%2Ftracker.leechers-paradise.org%3A6969","udp%3A%2F%2Fzer0day.ch%3A1337","udp%3A%2F%2Fopen.demonii.com%3A1337","udp%3A%2F%2Ftracker.coppersurfer.tk%3A6969","udp%3A%2F%2Fexodus.desync.com%3A6969"],"infoHash":"d8b44bd833c8ef3ee5744fb688c5851f51eafe41","infoHashBuffer":{"type":"Buffer","data":[216,180,75,216,51,200,239,62,229,116,79,182,136,197,133,31,81,234,254,65]},"announce":[],"urlList":[]}}